<mxfile host="app.diagrams.net" modified="2020-11-12T11:16:32.034Z" agent="5.0 (Windows NT 6.1; Win64; x64) AppleWebKit/537.36 (KHTML, like Gecko) Chrome/86.0.4240.111 Safari/537.36" etag="xz5q8EVF16z4GEOFXKxq" version="13.9.1" type="github">
  <diagram id="XgifE_geRHOmq-Xp8sVa" name="第 1 页">
    <mxGraphModel dx="1102" dy="582" grid="1" gridSize="10" guides="1" tooltips="1" connect="1" arrows="1" fold="1" page="1" pageScale="1" pageWidth="827" pageHeight="1169" math="0" shadow="0">
      <root>
        <mxCell id="0" />
        <mxCell id="1" parent="0" />
        <mxCell id="s4ajWTHo77XqpZnQpvyV-3" value="CSDN&amp;nbsp;" style="rounded=0;whiteSpace=wrap;html=1;fontSize=16;fillColor=#f9f7ed;labelBorderColor=none;strokeColor=#B3B3B3;" vertex="1" parent="1">
          <mxGeometry x="80" y="121.66666666666667" width="142.3529411764706" height="41.66666666666667" as="geometry" />
        </mxCell>
        <mxCell id="s4ajWTHo77XqpZnQpvyV-4" value="平台" style="rounded=0;whiteSpace=wrap;html=1;fontSize=16;fillColor=#ffcc99;labelBorderColor=none;strokeColor=#B3B3B3;" vertex="1" parent="1">
          <mxGeometry x="80" y="80" width="142.3529411764706" height="41.66666666666667" as="geometry" />
        </mxCell>
        <mxCell id="s4ajWTHo77XqpZnQpvyV-5" value="流量" style="rounded=0;whiteSpace=wrap;html=1;fontSize=16;fillColor=#ffcc99;labelBorderColor=none;strokeColor=#B3B3B3;" vertex="1" parent="1">
          <mxGeometry x="222.35" y="80" width="137.65" height="41.67" as="geometry" />
        </mxCell>
        <mxCell id="s4ajWTHo77XqpZnQpvyV-6" value="大" style="rounded=0;whiteSpace=wrap;html=1;fontSize=16;fillColor=#f9f7ed;labelBorderColor=none;strokeColor=#B3B3B3;" vertex="1" parent="1">
          <mxGeometry x="222.35" y="121.67" width="137.65" height="41.67" as="geometry" />
        </mxCell>
        <mxCell id="s4ajWTHo77XqpZnQpvyV-14" value="活动" style="rounded=0;whiteSpace=wrap;html=1;fontSize=16;fillColor=#ffcc99;labelBorderColor=none;strokeColor=#B3B3B3;" vertex="1" parent="1">
          <mxGeometry x="360" y="80" width="137.65" height="41.67" as="geometry" />
        </mxCell>
        <mxCell id="s4ajWTHo77XqpZnQpvyV-15" value="禁忌" style="rounded=0;whiteSpace=wrap;html=1;fontSize=16;fillColor=#ffcc99;labelBorderColor=none;strokeColor=#B3B3B3;" vertex="1" parent="1">
          <mxGeometry x="497.65" y="80" width="202.35" height="41.67" as="geometry" />
        </mxCell>
        <mxCell id="s4ajWTHo77XqpZnQpvyV-16" value="多" style="rounded=0;whiteSpace=wrap;html=1;fontSize=16;fillColor=#f9f7ed;labelBorderColor=none;strokeColor=#B3B3B3;" vertex="1" parent="1">
          <mxGeometry x="360" y="121.67000000000002" width="137.65" height="41.67" as="geometry" />
        </mxCell>
        <mxCell id="s4ajWTHo77XqpZnQpvyV-17" value="不能放二维码，但是可以文字提公众" style="rounded=0;whiteSpace=wrap;html=1;fontSize=16;fillColor=#f9f7ed;labelBorderColor=none;strokeColor=#B3B3B3;" vertex="1" parent="1">
          <mxGeometry x="497.65" y="121.67" width="202.35" height="41.67" as="geometry" />
        </mxCell>
        <mxCell id="s4ajWTHo77XqpZnQpvyV-18" value="知乎" style="rounded=0;whiteSpace=wrap;html=1;fontSize=16;fillColor=#f9f7ed;labelBorderColor=none;strokeColor=#B3B3B3;" vertex="1" parent="1">
          <mxGeometry x="80" y="163.3366666666667" width="142.3529411764706" height="41.66666666666667" as="geometry" />
        </mxCell>
        <mxCell id="s4ajWTHo77XqpZnQpvyV-19" value="大" style="rounded=0;whiteSpace=wrap;html=1;fontSize=16;fillColor=#f9f7ed;labelBorderColor=none;strokeColor=#B3B3B3;" vertex="1" parent="1">
          <mxGeometry x="222.35" y="163.34000000000003" width="137.65" height="41.67" as="geometry" />
        </mxCell>
        <mxCell id="s4ajWTHo77XqpZnQpvyV-20" value="技术类的很少" style="rounded=0;whiteSpace=wrap;html=1;fontSize=16;fillColor=#f9f7ed;labelBorderColor=none;strokeColor=#B3B3B3;" vertex="1" parent="1">
          <mxGeometry x="360" y="163.34000000000003" width="137.65" height="41.67" as="geometry" />
        </mxCell>
        <mxCell id="s4ajWTHo77XqpZnQpvyV-21" value="不能放二维码，也不能提及公众号信息" style="rounded=0;whiteSpace=wrap;html=1;fontSize=16;fillColor=#f9f7ed;labelBorderColor=none;strokeColor=#B3B3B3;" vertex="1" parent="1">
          <mxGeometry x="497.65" y="163.34" width="202.35" height="41.67" as="geometry" />
        </mxCell>
        <mxCell id="s4ajWTHo77XqpZnQpvyV-24" value="掘金" style="rounded=0;whiteSpace=wrap;html=1;fontSize=16;fillColor=#f9f7ed;labelBorderColor=none;strokeColor=#B3B3B3;" vertex="1" parent="1">
          <mxGeometry x="80" y="205.00666666666672" width="142.3529411764706" height="41.66666666666667" as="geometry" />
        </mxCell>
        <mxCell id="s4ajWTHo77XqpZnQpvyV-25" value="中等" style="rounded=0;whiteSpace=wrap;html=1;fontSize=16;fillColor=#f9f7ed;labelBorderColor=none;strokeColor=#B3B3B3;" vertex="1" parent="1">
          <mxGeometry x="222.35" y="205.01000000000005" width="137.65" height="41.67" as="geometry" />
        </mxCell>
        <mxCell id="s4ajWTHo77XqpZnQpvyV-26" value="不多" style="rounded=0;whiteSpace=wrap;html=1;fontSize=16;fillColor=#f9f7ed;labelBorderColor=none;strokeColor=#B3B3B3;" vertex="1" parent="1">
          <mxGeometry x="360" y="205.01000000000005" width="137.65" height="41.67" as="geometry" />
        </mxCell>
        <mxCell id="s4ajWTHo77XqpZnQpvyV-27" value="无" style="rounded=0;whiteSpace=wrap;html=1;fontSize=16;fillColor=#f9f7ed;labelBorderColor=none;strokeColor=#B3B3B3;" vertex="1" parent="1">
          <mxGeometry x="497.65" y="205.01" width="202.35" height="41.67" as="geometry" />
        </mxCell>
        <mxCell id="s4ajWTHo77XqpZnQpvyV-28" value="博客园" style="rounded=0;whiteSpace=wrap;html=1;fontSize=16;fillColor=#f9f7ed;labelBorderColor=none;strokeColor=#B3B3B3;" vertex="1" parent="1">
          <mxGeometry x="80" y="246.67666666666673" width="142.3529411764706" height="41.66666666666667" as="geometry" />
        </mxCell>
        <mxCell id="s4ajWTHo77XqpZnQpvyV-29" value="中等" style="rounded=0;whiteSpace=wrap;html=1;fontSize=16;fillColor=#f9f7ed;labelBorderColor=none;strokeColor=#B3B3B3;" vertex="1" parent="1">
          <mxGeometry x="222.35" y="246.68000000000006" width="137.65" height="41.67" as="geometry" />
        </mxCell>
        <mxCell id="s4ajWTHo77XqpZnQpvyV-30" value="无" style="rounded=0;whiteSpace=wrap;html=1;fontSize=16;fillColor=#f9f7ed;labelBorderColor=none;strokeColor=#B3B3B3;" vertex="1" parent="1">
          <mxGeometry x="360" y="246.68000000000006" width="137.65" height="41.67" as="geometry" />
        </mxCell>
        <mxCell id="s4ajWTHo77XqpZnQpvyV-31" value="无" style="rounded=0;whiteSpace=wrap;html=1;fontSize=16;fillColor=#f9f7ed;labelBorderColor=none;strokeColor=#B3B3B3;" vertex="1" parent="1">
          <mxGeometry x="497.65" y="246.68" width="202.35" height="41.67" as="geometry" />
        </mxCell>
        <mxCell id="s4ajWTHo77XqpZnQpvyV-32" value="思否" style="rounded=0;whiteSpace=wrap;html=1;fontSize=16;fillColor=#f9f7ed;labelBorderColor=none;strokeColor=#B3B3B3;" vertex="1" parent="1">
          <mxGeometry x="80" y="330.0166666666667" width="142.3529411764706" height="41.66666666666667" as="geometry" />
        </mxCell>
        <mxCell id="s4ajWTHo77XqpZnQpvyV-33" value="少" style="rounded=0;whiteSpace=wrap;html=1;fontSize=16;fillColor=#f9f7ed;labelBorderColor=none;strokeColor=#B3B3B3;" vertex="1" parent="1">
          <mxGeometry x="222.35" y="330.02" width="140" height="41.67" as="geometry" />
        </mxCell>
        <mxCell id="s4ajWTHo77XqpZnQpvyV-34" value="无" style="rounded=0;whiteSpace=wrap;html=1;fontSize=16;fillColor=#f9f7ed;labelBorderColor=none;strokeColor=#B3B3B3;" vertex="1" parent="1">
          <mxGeometry x="360" y="330.02000000000004" width="137.65" height="41.67" as="geometry" />
        </mxCell>
        <mxCell id="s4ajWTHo77XqpZnQpvyV-35" value="无" style="rounded=0;whiteSpace=wrap;html=1;fontSize=16;fillColor=#f9f7ed;labelBorderColor=none;strokeColor=#B3B3B3;" vertex="1" parent="1">
          <mxGeometry x="497.65" y="330.02" width="202.35" height="41.67" as="geometry" />
        </mxCell>
        <mxCell id="s4ajWTHo77XqpZnQpvyV-36" value="infoQ" style="rounded=0;whiteSpace=wrap;html=1;fontSize=16;fillColor=#f9f7ed;labelBorderColor=none;strokeColor=#B3B3B3;" vertex="1" parent="1">
          <mxGeometry x="80" y="371.6866666666668" width="142.3529411764706" height="41.66666666666667" as="geometry" />
        </mxCell>
        <mxCell id="s4ajWTHo77XqpZnQpvyV-37" value="少" style="rounded=0;whiteSpace=wrap;html=1;fontSize=16;fillColor=#f9f7ed;labelBorderColor=none;strokeColor=#B3B3B3;" vertex="1" parent="1">
          <mxGeometry x="222.35" y="371.69000000000005" width="140" height="41.67" as="geometry" />
        </mxCell>
        <mxCell id="s4ajWTHo77XqpZnQpvyV-38" value="多" style="rounded=0;whiteSpace=wrap;html=1;fontSize=16;fillColor=#f9f7ed;labelBorderColor=none;strokeColor=#B3B3B3;" vertex="1" parent="1">
          <mxGeometry x="360" y="371.6800000000001" width="137.65" height="41.67" as="geometry" />
        </mxCell>
        <mxCell id="s4ajWTHo77XqpZnQpvyV-39" value="无" style="rounded=0;whiteSpace=wrap;html=1;fontSize=16;fillColor=#f9f7ed;labelBorderColor=none;strokeColor=#B3B3B3;" vertex="1" parent="1">
          <mxGeometry x="497.65" y="371.69000000000005" width="202.35" height="41.67" as="geometry" />
        </mxCell>
        <mxCell id="s4ajWTHo77XqpZnQpvyV-40" value="牛客" style="rounded=0;whiteSpace=wrap;html=1;fontSize=16;fillColor=#f9f7ed;labelBorderColor=none;strokeColor=#B3B3B3;" vertex="1" parent="1">
          <mxGeometry x="80" y="288.3466666666668" width="142.3529411764706" height="41.66666666666667" as="geometry" />
        </mxCell>
        <mxCell id="s4ajWTHo77XqpZnQpvyV-41" value="中等" style="rounded=0;whiteSpace=wrap;html=1;fontSize=16;fillColor=#f9f7ed;labelBorderColor=none;strokeColor=#B3B3B3;" vertex="1" parent="1">
          <mxGeometry x="222.35" y="288.35" width="140" height="41.67" as="geometry" />
        </mxCell>
        <mxCell id="s4ajWTHo77XqpZnQpvyV-42" value="无" style="rounded=0;whiteSpace=wrap;html=1;fontSize=16;fillColor=#f9f7ed;labelBorderColor=none;strokeColor=#B3B3B3;" vertex="1" parent="1">
          <mxGeometry x="360" y="288.35000000000014" width="137.65" height="41.67" as="geometry" />
        </mxCell>
        <mxCell id="s4ajWTHo77XqpZnQpvyV-43" value="不能放二维码，也不能提及公众号信息" style="rounded=0;whiteSpace=wrap;html=1;fontSize=16;fillColor=#f9f7ed;labelBorderColor=none;strokeColor=#B3B3B3;" vertex="1" parent="1">
          <mxGeometry x="497.65" y="288.35" width="202.35" height="41.67" as="geometry" />
        </mxCell>
        <mxCell id="s4ajWTHo77XqpZnQpvyV-44" value="简书" style="rounded=0;whiteSpace=wrap;html=1;fontSize=16;fillColor=#f9f7ed;labelBorderColor=none;strokeColor=#B3B3B3;" vertex="1" parent="1">
          <mxGeometry x="80" y="413.3566666666668" width="142.3529411764706" height="41.66666666666667" as="geometry" />
        </mxCell>
        <mxCell id="s4ajWTHo77XqpZnQpvyV-45" value="少" style="rounded=0;whiteSpace=wrap;html=1;fontSize=16;fillColor=#f9f7ed;labelBorderColor=none;strokeColor=#B3B3B3;" vertex="1" parent="1">
          <mxGeometry x="222.35" y="413.3500000000001" width="140" height="41.67" as="geometry" />
        </mxCell>
        <mxCell id="s4ajWTHo77XqpZnQpvyV-46" value="无" style="rounded=0;whiteSpace=wrap;html=1;fontSize=16;fillColor=#f9f7ed;labelBorderColor=none;strokeColor=#B3B3B3;" vertex="1" parent="1">
          <mxGeometry x="360" y="413.3600000000001" width="137.65" height="41.67" as="geometry" />
        </mxCell>
        <mxCell id="s4ajWTHo77XqpZnQpvyV-47" value="无" style="rounded=0;whiteSpace=wrap;html=1;fontSize=16;fillColor=#f9f7ed;labelBorderColor=none;strokeColor=#B3B3B3;" vertex="1" parent="1">
          <mxGeometry x="497.65" y="413.36000000000007" width="202.35" height="41.67" as="geometry" />
        </mxCell>
      </root>
    </mxGraphModel>
  </diagram>
</mxfile>
